<?xml version="1.0" standalone="no"?>
<!DOCTYPE svg PUBLIC "-//W3C//DTD SVG 20010904//EN"
 "http://www.w3.org/TR/2001/REC-SVG-20010904/DTD/svg10.dtd">
<svg version="1.0" xmlns="http://www.w3.org/2000/svg"
 width="375.000000pt" height="222.000000pt" viewBox="0 0 375.000000 222.000000"
 preserveAspectRatio="xMidYMid meet">

<g transform="translate(0.000000,222.000000) scale(0.100000,-0.100000)"
fill="#000000" stroke="none">
<path d="M436 1829 c-56 -44 -22 -139 49 -139 70 0 103 96 49 139 -15 12 -37
21 -49 21 -12 0 -34 -9 -49 -21z"/>
<path d="M2356 1829 c-53 -42 -21 -139 46 -139 40 0 57 10 73 41 21 40 19 57
-14 90 -35 34 -68 37 -105 8z"/>
<path d="M1178 1693 c-3 -58 -3 -58 -36 -61 -25 -3 -32 -7 -28 -19 3 -8 6 -30
6 -49 0 -31 3 -34 30 -34 l30 0 0 -130 c0 -144 9 -177 55 -198 33 -15 112 -15
154 -1 34 12 35 20 11 83 -9 24 -12 25 -36 14 -23 -11 -28 -10 -45 11 -15 19
-19 40 -19 106 0 110 2 115 56 115 l44 0 0 49 0 50 -47 3 -48 3 -3 58 -3 57
-59 0 -59 0 -3 -57z"/>
<path d="M863 1641 c-18 -5 -40 -15 -50 -22 -13 -11 -17 -11 -20 -1 -3 8 -27
12 -74 12 l-69 0 2 -216 3 -216 65 -1 65 -1 3 150 c2 138 4 150 23 167 28 22
72 22 92 -1 14 -16 17 -43 17 -164 l0 -146 66 -4 c46 -2 68 1 71 9 3 7 3 87 2
177 -4 147 -6 167 -25 192 -43 59 -104 81 -171 65z"/>
<path d="M1615 1641 c-171 -44 -238 -245 -124 -374 49 -57 104 -79 192 -79 54
0 79 6 122 28 30 15 55 30 55 33 0 4 -14 23 -30 43 l-30 37 -47 -21 c-60 -26
-114 -20 -154 18 -16 15 -29 31 -29 36 0 4 69 9 153 10 l152 3 3 50 c4 72 -37
150 -98 187 -49 29 -117 41 -165 29z m109 -123 c14 -13 27 -34 28 -48 l3 -25
-90 1 c-104 1 -117 13 -67 64 38 38 89 41 126 8z"/>
<path d="M2155 1636 c-17 -7 -36 -20 -44 -29 -18 -23 -31 -21 -31 3 0 18 -7
20 -65 20 l-65 0 0 -215 0 -215 64 0 64 0 4 133 c3 105 7 139 21 160 21 32 60
44 99 29 27 -10 29 -9 53 38 14 27 25 54 25 59 0 10 -54 31 -79 31 -9 -1 -30
-7 -46 -14z"/>
<path d="M2737 1639 c-110 -27 -187 -119 -187 -224 0 -83 57 -171 135 -206 45
-21 147 -25 192 -8 90 34 153 120 153 211 0 148 -148 263 -293 227z m123 -137
c50 -51 49 -132 -2 -179 -28 -25 -109 -25 -137 1 -32 29 -46 86 -31 130 25 77
115 103 170 48z"/>
<path d="M3294 1631 c-18 -11 -35 -24 -38 -30 -12 -19 -26 -12 -26 12 0 21 -3
22 -65 19 l-65 -4 0 -213 0 -213 66 -4 c36 -1 68 -1 70 1 2 2 4 67 4 143 0
136 1 139 26 165 25 25 56 28 104 9 12 -5 22 7 40 46 13 29 25 56 27 60 5 8
-62 28 -92 28 -11 0 -34 -9 -51 -19z"/>
<path d="M2295 1630 c-1 -3 -6 -26 -9 -52 l-7 -48 30 0 31 0 0 -165 0 -165 70
0 71 0 -1 203 c-1 112 -5 208 -8 214 -7 11 -171 23 -177 13z"/>
<path d="M360 1580 c0 -49 1 -50 30 -50 l30 0 0 -164 0 -164 66 -4 c36 -1 66
-2 67 -1 1 1 1 98 -1 217 l-3 216 -94 0 -95 0 0 -50z"/>
<path d="M3168 1034 c-56 -30 -65 -95 -19 -146 37 -42 96 -46 135 -9 88 82
-10 213 -116 155z m105 -11 c18 -11 37 -64 31 -88 -15 -58 -103 -86 -144 -45
-43 43 -34 110 20 137 22 11 70 9 93 -4z"/>
<path d="M3191 953 c1 -26 4 -38 6 -25 5 26 21 29 37 6 9 -12 12 -8 11 23 0
34 -3 38 -27 41 -27 3 -28 2 -27 -45z m47 20 c2 -8 -5 -13 -17 -13 -12 0 -21
6 -21 16 0 18 31 15 38 -3z"/>
<path d="M810 915 c0 -69 -2 -125 -5 -125 -3 0 -23 9 -45 20 -134 69 -290 -49
-290 -219 0 -91 65 -185 146 -211 49 -17 125 -8 162 18 37 27 42 27 42 2 0
-19 5 -21 63 -18 34 2 61 6 60 11 -2 4 -3 151 -3 327 l0 320 -65 0 -65 0 0
-125z m-29 -234 c25 -25 29 -37 29 -81 0 -44 -4 -56 -29 -81 -43 -43 -101 -41
-147 5 -24 24 -34 43 -34 65 0 104 112 160 181 92z"/>
<path d="M1983 1030 c-35 -14 -55 -62 -41 -100 22 -64 112 -70 143 -9 20 38
19 54 -7 83 -26 29 -63 39 -95 26z"/>
<path d="M1167 816 c-98 -36 -153 -125 -145 -239 5 -81 37 -134 105 -174 42
-25 58 -28 133 -28 69 0 94 4 133 24 26 13 47 29 47 35 0 6 -13 27 -28 45 -28
34 -28 34 -59 17 -58 -30 -149 -18 -180 23 -29 37 -18 40 140 43 l152 3 -3 50
c-4 61 -42 144 -79 171 -60 44 -143 55 -216 30z m148 -121 c14 -13 25 -33 25
-45 0 -19 -6 -20 -95 -20 -108 0 -118 9 -66 61 39 39 100 41 136 4z"/>
<path d="M1598 809 c-64 -33 -90 -97 -68 -163 15 -46 44 -68 131 -101 59 -23
70 -30 67 -49 -5 -33 -66 -35 -93 -4 -18 21 -27 24 -78 20 -57 -4 -59 -4 -52
-30 18 -70 84 -112 178 -112 128 1 206 92 164 192 -16 38 -53 63 -132 88 -56
18 -77 38 -64 61 13 25 37 24 66 -2 l22 -22 48 21 c26 11 49 24 51 30 4 14
-49 63 -85 78 -45 20 -111 17 -155 -7z"/>
<path d="M2300 817 c-93 -44 -140 -121 -140 -226 1 -147 88 -229 231 -219 l59
4 0 -32 c0 -20 -9 -44 -24 -61 -20 -23 -32 -28 -73 -28 -30 0 -63 8 -90 22
l-42 22 -35 -49 c-20 -28 -36 -52 -36 -54 0 -2 28 -16 63 -32 111 -50 238 -35
303 38 57 62 59 73 62 356 l3 263 -73 -1 c-40 0 -98 2 -128 4 -33 3 -65 1 -80
-7z m150 -217 c0 -119 -1 -120 -67 -120 -25 0 -43 8 -64 29 -25 25 -29 37 -29
83 0 84 47 129 125 120 l35 -4 0 -108z"/>
<path d="M2852 810 c-39 -24 -42 -24 -42 -5 0 12 -14 15 -65 15 l-65 0 0 -220
0 -220 65 0 65 0 0 143 c0 171 7 190 73 185 60 -4 67 -24 67 -190 l0 -138 66
0 66 0 -4 173 c-4 192 -11 219 -71 256 -44 27 -111 28 -155 1z"/>
<path d="M1890 765 c0 -39 4 -55 13 -54 48 6 47 10 47 -166 l0 -165 65 0 65 0
0 220 0 220 -95 0 -95 0 0 -55z"/>
<path d="M3226 777 c-10 -7 -16 -22 -14 -33 5 -27 81 -28 86 -1 8 39 -36 60
-72 34z m57 -38 c-14 -14 -55 -8 -61 9 -6 19 40 33 58 16 10 -10 11 -17 3 -25z"/>
<path d="M3220 690 c-11 -7 -1 -10 35 -10 36 0 46 3 35 10 -8 5 -24 10 -35 10
-11 0 -27 -5 -35 -10z"/>
<path d="M3210 648 c0 -4 21 -8 48 -7 52 1 48 6 -10 11 -21 2 -38 0 -38 -4z"/>
<path d="M3228 609 c-26 -15 -22 -36 10 -47 15 -5 36 -14 47 -18 18 -7 18 -6
7 8 -7 9 -27 20 -43 23 -43 10 -36 30 9 24 4 -1 6 -5 5 -10 -2 -5 0 -9 3 -9 7
0 34 27 34 34 0 10 -54 6 -72 -5z"/>
<path d="M3255 510 c-17 -7 -15 -9 13 -9 17 -1 32 4 32 9 0 12 -17 12 -45 0z"/>
<path d="M3250 480 l-45 -7 42 -1 c23 -1 45 3 48 8 3 6 5 9 3 8 -2 0 -23 -4
-48 -8z"/>
<path d="M3222 441 c-8 -4 -12 -19 -10 -32 2 -20 9 -24 46 -27 24 -2 42 1 42
7 0 6 -7 8 -16 4 -13 -5 -15 0 -12 23 2 23 -1 30 -17 32 -11 1 -26 -2 -33 -7z
m35 -17 c8 -21 -13 -42 -28 -27 -13 13 -5 43 11 43 6 0 13 -7 17 -16z"/>
</g>
</svg>
